<svg id="Layer_1" data-name="Layer 1" xmlns="http://www.w3.org/2000/svg" xmlns:xlink="http://www.w3.org/1999/xlink" viewBox="0 0 370.18 132.87"><defs><style>.cls-1{fill:url(#linear-gradient);}.cls-2{fill:url(#linear-gradient-2);}.cls-3{fill:#1d1d1b;}</style><linearGradient id="linear-gradient" x1="115.94" y1="106.25" x2="135.15" y2="133.49" gradientTransform="matrix(1, -0.08, 0.08, 1, -2.89, 9.97)" gradientUnits="userSpaceOnUse"><stop offset="0" stop-color="#f29022"/><stop offset="1" stop-color="#eb600a"/></linearGradient><linearGradient id="linear-gradient-2" x1="204.38" y1="209.06" x2="180.77" y2="161.33" gradientTransform="translate(16.82 -26.78) rotate(11.66)" gradientUnits="userSpaceOnUse"><stop offset="0" stop-color="#44a435"/><stop offset="1" stop-color="#008737"/></linearGradient></defs><title>Logo_final</title><path class="cls-1" d="M142.88,109.89q-1.49.4-2.91.93h0c-8.87,2.66-18.52-4.67-18.52-4.67-5.88-4.08-9.7-7.13-9.7-7.13-1.12-.8-3.17-2.52-5.23-1.7s-.07,5.58-.07,5.58l.24.85,11.88,44.17,0,.15s.46,1.68.73,2.69a33.34,33.34,0,1,0,23.54-40.86Zm14,45.92A15.1,15.1,0,1,1,166,136.48,15.1,15.1,0,0,1,156.86,155.81Z" transform="translate(-105.62 -97.09)"/><path class="cls-2" d="M208.68,191a33.35,33.35,0,1,0-65-15.06c-.23,1-.64,2.72-.64,2.72l0,.14-10.33,44.56-.21.86s-1.77,4.85.27,5.58,4.07-1,5.16-1.89c0,0,3.72-3.18,9.45-7.46,0,0,9.38-7.67,18.34-5.32h0c1,.32,1.94.6,2.94.83A33.34,33.34,0,0,0,208.68,191Zm-18.12-.8a15.1,15.1,0,1,1-7.4-20A15.1,15.1,0,0,1,190.56,190.19Z" transform="translate(-105.62 -97.09)"/><path class="cls-3" d="M236.91,165.43a10.87,10.87,0,0,1-7.66,2.72,10.71,10.71,0,0,1-4.39-.79,8,8,0,0,1-3.23-2.83l-.33,3.26h-6l4.28-43h6L224,140.25a10.27,10.27,0,0,1,3.75-2.66,12.26,12.26,0,0,1,4.57-.79q4.68,0,6.81,2.38a10,10,0,0,1,2.49,5.74,37.17,37.17,0,0,1-.06,7.51,40.64,40.64,0,0,1-1.42,7.68A11.74,11.74,0,0,1,236.91,165.43Zm-6.7-23.14c-2.52,0-4.31.9-5.35,2.7a18.61,18.61,0,0,0-2,7.46,17,17,0,0,0,.54,7.55c.69,1.77,2.29,2.65,4.82,2.65s4.3-.88,5.32-2.66a19.12,19.12,0,0,0,2-7.55A17.15,17.15,0,0,0,235,145Q234,142.3,230.21,142.29Z" transform="translate(-105.62 -97.09)"/><path class="cls-3" d="M259.26,167.83l.27-2.78a11.92,11.92,0,0,1-3.69,2.4,13.44,13.44,0,0,1-4.66.69q-5.37,0-7.66-2.66a8.5,8.5,0,0,1-1.9-6.7,9.17,9.17,0,0,1,3.34-6.41q2.94-2.42,8-2.42h8l.22-2.18q.3-3-1.13-4.34t-5-1.39a10.52,10.52,0,0,0-4,.64,8,8,0,0,0-3,2.32l-3.62-3.8a13.93,13.93,0,0,1,4.9-3.42,18.16,18.16,0,0,1,6.39-1q12.45,0,11.4,10.53l-2,20.52Zm1.35-13.59h-7.16q-5.47,0-5.91,4.42T252.7,163a14.58,14.58,0,0,0,3.36-.3,6.39,6.39,0,0,0,2.6-1.55q1.38-1.23,1.7-4.44Z" transform="translate(-105.62 -97.09)"/><path class="cls-3" d="M281.15,168.12a11.93,11.93,0,0,1-9.21-3.8q-3.49-3.81-2.69-11.9t5.05-11.84a14.46,14.46,0,0,1,10-3.81,13.33,13.33,0,0,1,5.39,1,11.94,11.94,0,0,1,4.14,3.32l-4.58,4.11a6.91,6.91,0,0,0-5.49-2.9,7.23,7.23,0,0,0-5.74,2.51c-1.43,1.68-2.32,4.22-2.66,7.65s0,6,1.14,7.7a5.81,5.81,0,0,0,5.23,2.5,7.17,7.17,0,0,0,3.1-.6,12.43,12.43,0,0,0,3-2.3l3.77,4.05A14.49,14.49,0,0,1,281.15,168.12Z" transform="translate(-105.62 -97.09)"/><path class="cls-3" d="M311.82,167.83l-7-14.19-5,5.19-.91,9h-6.08l4.29-43.07h6.08l-2.64,26.52,13.14-14.15h7.4l-11.7,12,9.95,18.67Z" transform="translate(-105.62 -97.09)"/><path class="cls-3" d="M341.76,165.37a10.88,10.88,0,0,1-7.64,2.72,11.48,11.48,0,0,1-4.43-.75,7.74,7.74,0,0,1-3.2-2.75l-1.55,15.59h-6l4.28-43.07h6l-.31,3.2a10.7,10.7,0,0,1,3.76-2.77,12.09,12.09,0,0,1,4.58-.8,11.64,11.64,0,0,1,4.1.69,8.61,8.61,0,0,1,3.34,2.38,8.91,8.91,0,0,1,1.85,5.05,38,38,0,0,1-.06,7.52,40.47,40.47,0,0,1-1.43,7.67A11.69,11.69,0,0,1,341.76,165.37Zm-6.67-23.19q-3.78,0-5.35,2.7a18.66,18.66,0,0,0-2,7.48,17,17,0,0,0,.54,7.57q1,2.67,4.82,2.66t5.31-2.66a19.27,19.27,0,0,0,2-7.58,17.25,17.25,0,0,0-.52-7.51C339.22,143.06,337.62,142.18,335.09,142.18Z" transform="translate(-105.62 -97.09)"/><path class="cls-3" d="M364.13,167.77l.28-2.78a11.84,11.84,0,0,1-3.7,2.4,13.2,13.2,0,0,1-4.66.69c-3.57,0-6.13-.89-7.66-2.66a8.5,8.5,0,0,1-1.89-6.7,9.08,9.08,0,0,1,3.33-6.4c2-1.62,4.64-2.42,8-2.43h8l.21-2.17q.3-3-1.13-4.35c-.95-.93-2.6-1.39-5-1.39a10.46,10.46,0,0,0-4,.64,8.11,8.11,0,0,0-3,2.32l-3.61-3.8a13.68,13.68,0,0,1,4.9-3.41,17.62,17.62,0,0,1,6.38-1q12.45,0,11.41,10.52l-2,20.52Zm1.35-13.59h-7.16c-3.65,0-5.62,1.48-5.91,4.42s1.43,4.34,5.16,4.34a14.68,14.68,0,0,0,3.37-.3,6.44,6.44,0,0,0,2.59-1.54q1.38-1.24,1.71-4.44Z" transform="translate(-105.62 -97.09)"/><path class="cls-3" d="M386,168.06a11.92,11.92,0,0,1-9.22-3.8q-3.49-3.81-2.69-11.9t5.05-11.84a14.48,14.48,0,0,1,10-3.81,13.28,13.28,0,0,1,5.38,1,11.76,11.76,0,0,1,4.14,3.32l-4.58,4.11a6.84,6.84,0,0,0-5.49-2.89,7.2,7.2,0,0,0-5.73,2.51c-1.44,1.67-2.33,4.21-2.67,7.64s0,6,1.14,7.7a5.81,5.81,0,0,0,5.24,2.5,7.09,7.09,0,0,0,3.09-.6,11.81,11.81,0,0,0,3-2.3l3.77,4.05A14.46,14.46,0,0,1,386,168.06Z" transform="translate(-105.62 -97.09)"/><path class="cls-3" d="M416.7,167.77l-7-14.19-5,5.19-.91,9h-6.08L402,124.68h6.08l-2.64,26.52,13.15-14.14H426l-11.7,12,10,18.68Z" transform="translate(-105.62 -97.09)"/><path class="cls-3" d="M431,154.14c-.27,2.7.19,4.8,1.37,6.32a6.52,6.52,0,0,0,5.46,2.26,10.56,10.56,0,0,0,4.12-.7,12.9,12.9,0,0,0,3.52-2.45l3.51,3.69a19.19,19.19,0,0,1-5.34,3.62,16.09,16.09,0,0,1-6.46,1.15q-6.25,0-9.58-3.68t-2.5-12q.74-7.37,4.6-11.5a12.82,12.82,0,0,1,9.77-4.15q6,0,9,4.08t2.37,10.66l-.28,2.71Zm13.53-8.46a5.23,5.23,0,0,0-2-2.81,5.93,5.93,0,0,0-3.54-1.05,6.91,6.91,0,0,0-3.78,1,7.26,7.26,0,0,0-2.6,2.83,11.28,11.28,0,0,0-1.19,4.17h13.53A9.91,9.91,0,0,0,444.5,145.68Z" transform="translate(-105.62 -97.09)"/><path class="cls-3" d="M470.75,144.21a6.77,6.77,0,0,0-1.91-1.53,5.22,5.22,0,0,0-2.42-.52A6.17,6.17,0,0,0,462,144a7.86,7.86,0,0,0-2.23,5l-1.86,18.65h-6L455,137h6l-.33,3.33a8.88,8.88,0,0,1,3.51-2.66,11.45,11.45,0,0,1,4.78-1,10.82,10.82,0,0,1,3.91.6,8.31,8.31,0,0,1,3,2.29Z" transform="translate(-105.62 -97.09)"/><path class="cls-3" d="M398.76,201.15v-2.22a6.33,6.33,0,0,1-2.41,1.91,7.81,7.81,0,0,1-3.1.56,8.6,8.6,0,0,1-2.87-.47,6.65,6.65,0,0,1-2.46-1.63,6.56,6.56,0,0,1-1.62-3.42,25.21,25.21,0,0,1-.47-5.16,19.68,19.68,0,0,1,.62-5.76,8.33,8.33,0,0,1,2.1-3.39,6.49,6.49,0,0,1,4.71-1.48,8.68,8.68,0,0,1,3.08.51,6.37,6.37,0,0,1,2.42,1.83V171.92h4.1v29.23Zm-4.35-17.32a3.52,3.52,0,0,0-3.51,1.83,11.77,11.77,0,0,0-.89,5.06,12,12,0,0,0,.89,5.14c.6,1.2,1.76,1.8,3.51,1.8s2.9-.6,3.48-1.8a12.17,12.17,0,0,0,.87-5.14,12,12,0,0,0-.87-5.09Q397,183.83,394.41,183.83Z" transform="translate(-105.62 -97.09)"/><path class="cls-3" d="M409,192a6.22,6.22,0,0,0,1.37,4.3,5,5,0,0,0,3.92,1.54,6.86,6.86,0,0,0,2.79-.48,7.59,7.59,0,0,0,2.26-1.66l2.67,2.51a11.56,11.56,0,0,1-3.43,2.46,10.71,10.71,0,0,1-4.37.78,9.37,9.37,0,0,1-6.86-2.51c-1.69-1.66-2.54-4.39-2.54-8.17,0-3.34.79-5.94,2.38-7.82a8.86,8.86,0,0,1,12.91,0,10.78,10.78,0,0,1,2.36,7.25V192Zm8.74-5.74a4.12,4.12,0,0,0-1.57-1.91,4.43,4.43,0,0,0-2.51-.72,4.5,4.5,0,0,0-2.54.7,4.26,4.26,0,0,0-1.59,1.93A7,7,0,0,0,409,189h9.32A7.06,7.06,0,0,0,417.72,186.21Z" transform="translate(-105.62 -97.09)"/><path class="cls-3" d="M435.54,201.19V199.3a7.08,7.08,0,0,1-2.39,1.63,8.81,8.81,0,0,1-3.16.47q-3.69,0-5.45-1.81a6.23,6.23,0,0,1-1.77-4.55,5.54,5.54,0,0,1,1.86-4.36A7.89,7.89,0,0,1,430,189h5.54v-1.48a3.71,3.71,0,0,0-1.08-2.95,5.29,5.29,0,0,0-3.52-1,7,7,0,0,0-2.71.44,4.66,4.66,0,0,0-1.89,1.58l-2.75-2.59a8.35,8.35,0,0,1,3.14-2.32,11.88,11.88,0,0,1,4.33-.68q8.58,0,8.58,7.16v13.94Zm0-9.24H430.6c-2.51,0-3.77,1-3.77,3s1.29,3,3.86,3a9.7,9.7,0,0,0,2.3-.21,3.78,3.78,0,0,0,1.67-1,4.1,4.1,0,0,0,.88-3Z" transform="translate(-105.62 -97.09)"/><path class="cls-3" d="M448,201.19a5.39,5.39,0,0,1-4.26-1.62,6,6,0,0,1-1.44-4.13V171.92h4.19V195.2A2.73,2.73,0,0,0,447,197a2.18,2.18,0,0,0,1.74.6h1.85v3.57Z" transform="translate(-105.62 -97.09)"/><path class="cls-3" d="M458.28,201.4a17,17,0,0,1-4.91-.64,9.44,9.44,0,0,1-3.84-2.36l2.75-2.75a6.36,6.36,0,0,0,2.71,1.68,10.83,10.83,0,0,0,3.29.5,6.61,6.61,0,0,0,3.28-.72,2.33,2.33,0,0,0,1.27-2.16,2.47,2.47,0,0,0-.65-1.8,2.93,2.93,0,0,0-2.14-.66l-3.32-.29a7.64,7.64,0,0,1-4.6-1.64,5.23,5.23,0,0,1-1.56-4.11,5.54,5.54,0,0,1,2.2-4.67,9,9,0,0,1,5.64-1.69,15.71,15.71,0,0,1,4.35.56,8.87,8.87,0,0,1,3.37,1.78l-2.63,2.67a5.7,5.7,0,0,0-2.28-1.15,11.25,11.25,0,0,0-2.85-.37,4.64,4.64,0,0,0-2.81.72,2.29,2.29,0,0,0-1,1.95,2.14,2.14,0,0,0,.64,1.62,3.85,3.85,0,0,0,2.24.76l3.28.29a7.57,7.57,0,0,1,4.62,1.68,5.4,5.4,0,0,1,1.58,4.19,5.65,5.65,0,0,1-2.4,4.88A10.49,10.49,0,0,1,458.28,201.4Z" transform="translate(-105.62 -97.09)"/></svg>